<?xml version="1.0" encoding="UTF-8" standalone="no"?>
<!-- Created with Inkscape (http://www.inkscape.org/) -->

<svg
   xmlns:dc="http://purl.org/dc/elements/1.1/"
   xmlns:cc="http://creativecommons.org/ns#"
   xmlns:rdf="http://www.w3.org/1999/02/22-rdf-syntax-ns#"
   xmlns:svg="http://www.w3.org/2000/svg"
   xmlns="http://www.w3.org/2000/svg"
   xmlns:sodipodi="http://sodipodi.sourceforge.net/DTD/sodipodi-0.dtd"
   xmlns:inkscape="http://www.inkscape.org/namespaces/inkscape"
   width="47.496109mm"
   height="15.770055mm"
   viewBox="0 0 47.496109 15.770055"
   version="1.1"
   id="svg1232"
   inkscape:version="0.92.4 (5da689c313, 2019-01-14)"
   sodipodi:docname="logo_lernia.svg">
  <defs
     id="defs1226" />
  <sodipodi:namedview
     id="base"
     pagecolor="#ffffff"
     bordercolor="#666666"
     borderopacity="1.0"
     inkscape:pageopacity="0.0"
     inkscape:pageshadow="2"
     inkscape:zoom="1.979899"
     inkscape:cx="101.25319"
     inkscape:cy="26.723377"
     inkscape:document-units="mm"
     inkscape:current-layer="layer1"
     showgrid="false"
     inkscape:window-width="1858"
     inkscape:window-height="1016"
     inkscape:window-x="1742"
     inkscape:window-y="27"
     inkscape:window-maximized="1" />
  <metadata
     id="metadata1229">
    <rdf:RDF>
      <cc:Work
         rdf:about="">
        <dc:format>image/svg+xml</dc:format>
        <dc:type
           rdf:resource="http://purl.org/dc/dcmitype/StillImage" />
        <dc:title></dc:title>
      </cc:Work>
    </rdf:RDF>
  </metadata>
  <g
     inkscape:label="Layer 1"
     inkscape:groupmode="layer"
     id="layer1"
     transform="translate(-66.210281,-258.87687)">
    <g
       transform="matrix(0.054284,0,0,0.054284,101.30874,264.73007)"
       id="layer1-3"
       inkscape:label="Layer 1"
       style="opacity:0.475">
      <path
         style="fill:#000000;stroke-width:0.26458332"
         d="m -58.305783,182.48858 c 15.451296,-20.20724 48.83658,-20.55998 56.319102,-47.64333 9.025304,5.02341 53.192414,-38.861261 19.828824,-33.02581 -16.87178797,2.42021 -20.3568,35.93014 -32.612379,9.67301 C -27.307094,86.982429 2.650221,65.332819 -0.87598597,39.420559 4.741726,20.525389 -9.864411,18.431099 -11.384046,37.115659 c -4.539668,12.15911 -21.647705,51.48058 -9.314815,19.01637 0.625634,-14.84923 26.883016,-51.0083599 2.883747,-50.2162999 -8.14324,11.3525099 -20.701021,29.9531259 -21.616295,38.6237559 1.994139,-8.38298 12.155112,-48.4321459 -5.399436,-37.2367159 -11.230848,14.4598399 -11.19595,44.5724299 -22.95638,51.7339799 -7.757988,-8.67171 3.758316,-51.2920899 -13.733277,-35.2499 -6.660698,26.93074 3.706593,54.72594 -1.893118,82.043631 4.005001,14.09351 -9.492226,40.08174 -6.0169,44.99478 12.00268,-21.5492 5.637266,-48.77937 10.514552,-74.279731 -1.167339,-13.66769 -12.816856,-55.94021 5.821929,-50.09896 -2.404711,16.90351 0.250796,43.15282 17.162283,45.42856 7.341076,10.29205 3.954859,36.779451 -4.303903,12.72451 -19.636232,-28.00193 15.959883,49.364841 3.104255,30.207161 9.107563,5.51869 -9.266581,56.38714 -3.486369,43.65764 24.233433,-7.0141 12.146393,-39.85687 10.290712,-58.09089 8.916061,-22.157071 -15.773286,-36.899111 -8.074925,-56.678021 6.193684,-7.72276 11.047439,-43.65922989 20.586012,-32.25787 -4.135093,23.51437 -18.978827,60.15411 3.411855,67.41798 22.539616,-7.73175 5.167445,24.538891 5.320877,23.746021 16.022426,9.3477 2.377996,8.80374 7.759091,11.33956 14.235007,3.78845 -31.190988,-0.26901 -8.464894,8.48275 28.040648,-3.91769 24.016071,21.30279 6.357964,29.62123 -11.972263,7.26984 -27.172443,27.70838 -41.675319,21.77063 1.666257,-12.63329 -39.80324,11.24917 6.800617,8.67275 z M 5.986908,129.03524 c -13.813366,-13.04849 3.228045,-19.75199 13.920475,-19.90249 -1.10448,-12.940031 14.32591,4.91661 -0.42916,9.3413 -4.06802,10.77198 -12.55374,-0.24005 -13.491315,10.56119 z M -38.092701,70.899309 c -3.818705,-24.32395 13.200618,-45.50162 24.259116,-65.3265099 9.48698,17.1974999 -14.706124,36.6229399 -11.591369,55.3713399 -3.025722,4.74084 -8.579908,6.4449 -12.667747,9.95517 z M 200.78807,173.06279 c -0.22358,-3.47503 -3.05308,0.31557 0,0 z m -18.33118,-0.76454 c 22.4872,-1.1291 -9.41552,-9.41787 -16.40961,-17.19248 -22.48045,-6.74277 -46.33153,-12.17382 -63.69404,-29.37116 -13.563147,-7.04661 -21.691977,-29.343651 1.36178,-21.74819 10.71359,2.19832 29.20524,17.27262 9.85187,4.48071 -14.791187,-18.485861 -41.736777,8.52015 -12.81131,15.87554 19.49285,21.08438 47.92292,25.77285 73.14071,35.37063 3.67197,2.67803 11.36743,6.75433 8.5606,12.58495 z m 16.31659,-1.96397 c 3.39225,-2.56945 -2.23377,2.40469 0,0 z m 9.90229,0.0707 c -2.85252,-11.33861 -3.27951,-1.47045 0,0 z m -1.26142,0.46593 -1.00555,-0.84566 z m 0.041,-1.28624 0.13282,0.55358 z m -2.23046,-1.33837 c -4.87574,-4.87387 4.23233,4.92178 0,0 z m -23.60742,-0.18252 c -1.45576,-6.34822 -4.66193,1.31038 0,0 z m -1.75712,-0.64148 c -2.82496,-4.09194 4.01156,3.08687 0,0 z m 25.85937,-0.12213 c -2.92553,-2.46287 2.33145,3.23781 0,0 z m -7.89652,-0.4618 -1.32813,0.70614 z m 17.56754,-0.43392 c -0.51155,-6.1567 2.15974,-8.09482 0.50086,-4.72694 3.51819,2.95428 -7.99772,8.17229 -0.50086,4.72694 z m -4.8156,-0.018 c -4.69136,-11.36522 -4.05151,-1.20857 0,0 z m -16.87629,-0.53057 c 7.70469,-8.0835 29.95964,0.72887 10.80336,-6.08581 -21.2965,18.93765 -38.64688,-31.20979 -47.54741,-16.15056 -36.31813,-23.98286 12.01423,-20.16017 12.88986,-18.34269 15.45727,24.96632 11.75595,-49.318457 16.77764,-27.293607 -16.62215,-63.148316 40.97862,-63.577331 18.20357,-44.897054 -5.64734,24.51875 0.7647,55.689901 16.46868,76.325681 6.70769,8.18806 1.51254,23.15472 5.21742,5.08825 -16.65399,-20.26529 -21.79122,-46.473386 -16.55885,-72.164276 12.85057,-51.947071 -17.0652,-10.659357 -36.46553,-2.768815 -9.59418,18.87006 5.98673,9.2167 8.94279,7.04273 -4.94422,14.44356 -19.30651,53.797101 -11.72617,50.209601 -16.71391,-20.125021 -58.4803,19.10692 -22.81761,29.7845 6.63149,-10.66962 31.19251,19.31195 45.81225,19.25205 z m 7.29107,-0.73335 -2.83115,1.40944 z m 2.45568,0.7469 c -2.82353,-2.38128 0.68109,1.67229 0,0 z m -0.66146,-0.95679 -0.78992,-0.22185 z m 17.90372,-4.40131 c -6.95376,-7.37329 -4.46826,-2.12548 0,0 z m 0.31734,-4.10166 c -3.41421,-6.24388 3.4848,7.79233 0,0 z m 1.48468,-0.0641 c 5.10167,-8.38499 -5.49465,-0.98769 0,0 z m -7.43445,-0.33054 c -1.70709,-0.82312 0.41664,1.8272 0,0 z m -1.32842,-1.57114 c 3.01128,-2.64155 -4.01349,4.78866 0,0 z m 6.03846,-2.1486 c -1.06524,-1.32525 0.3765,1.65841 0,0 z m 4.04955,-0.97793 c 1.81586,-4.87868 -6.20668,1.43894 0,0 z m -2.51005,-1.15755 c 0.79814,-1.29881 0.79814,1.29881 0,0 z m -1.05341,-0.93395 c 4.84584,-5.82689 -4.62444,6.53235 0,0 z m 4.66021,-1.81369 c 8.14885,-16.7757 -0.68995,-10.33349 0,0 z m -95.22271,-10.1508 c -11.44873,-12.20094 6.69584,-25.54346 -18.74525,-23.2684 -1.34382,4.65725 1.57877,-12.01848 -10.970397,-7.39509 -14.52231,7.33573 34.368027,27.57308 26.571917,29.05493 1.79277,0.20921 5.43603,10.04716 3.14373,1.60856 z m 4.62023,-21.01219 c 10.82228,-19.799171 -5.648,9.78711 0,0 z m -172.439456,0.75504 c 12.456636,-11.88926 -8.248889,-6.92499 0,0 z m -4.321361,-0.57877 c 2.608289,-13.40591 -7.556394,-33.976871 -2.859272,-9.19291 l 1.753737,4.78683 z m 37.802238,0.19928 C 1.973735,104.02838 38.446153,97.242359 10.699583,85.107469 2.889431,77.556749 -8.586051,49.075959 1.168184,74.209369 c 5.063252,14.96305 29.813069,23.74936 5.808659,32.533721 -6.74004497,5.4407 -18.029948,11.6288 -21.019449,2.18003 1.870499,3.22185 4.773666,8.7134 9.393317,7.70161 z M 143.91436,108.98404 C 184.5736,99.7605 190.03555,-0.27036143 157.72571,1.1225391 c 0.26321,19.5592999 15.23309,38.4236399 3.22109,53.3084699 -9.16519,-17.90293 -32.70705,-42.52354 -47.6396,-43.41993 3.55139,20.85288 22.36171,37.65532 33.90516,52.77222 -1.21272,10.47263 -5.61774,26.47318 4.33776,30.42617 -0.50866,3.45557 -13.93978,14.014941 -7.63576,14.774571 z m 8.59895,-13.706341 c -4.81708,-11.30734 0.40389,-39.89974 12.84597,-33.1906 -6.13079,6.99881 -7.86921,19.81434 -1.04886,15.46365 1.28876,11.13509 -5.62559,11.58466 -11.79711,17.72695 z m 4.96094,-7.68337 c 9.13934,-6.79867 -4.04423,-5.47712 0,0 z m 8.95578,-9.39567 0.23429,0.20445 z m -19.84309,-18.38166 c -2.79548,-20.00465 -27.69947,-28.76012 -28.5188,-47.50475 15.16261,12.30137 35.34833,26.46618 41.72177,43.45905 -3.79698,2.93911 -8.68346,3.29072 -13.20297,4.0457 z m -4.99602,44.554091 c 2.90113,-15.057771 -3.30068,4.47686 0,0 z m 3.64635,-5.385311 c -1.69042,-0.68637 -0.70551,2.231481 0,0 z m -4.60213,-1.77794 c -1.24177,-1.55784 1.27997,3.140641 0,0 z m 24.09933,-2.0324 c 9.49623,-9.90821 -4.59536,-0.76405 0,0 z M 15.591443,88.313049 c -0.79814,-1.29881 -0.79814,1.2988 0,0 z m 121.505867,-3.20969 c -6.37487,-9.28703 -18.69392,-24.12438 -5.68113,-6.76169 1.12236,1.16768 6.2702,10.61603 5.68113,6.76169 z m -98.216507,-0.9598 c 6.80297,-2.87542 39.93177,-13.27151 17.63583,-10.02902 -10.84101,0.34752 -50.322662,-5.52059 -17.63583,10.02902 z m 97.612357,-3.69038 c 16.99993,-18.06333 -15.12932,-45.20999 -27.86313,-49.58686 7.32686,17.11601 16.83498,32.32227 27.86313,49.58686 z m -1.08275,-3.46761 c -4.68556,-13.86759 3.44753,-24.92843 5.05225,-6.59319 -1.48741,2.91677 -2.45952,4.78276 -5.05225,6.59319 z m -6.87496,-20.14701 c -7.08136,-8.99915 -24.83801,-34.155455 -5.7352,-13.537635 3.39188,3.5571 16.81452,11.069505 5.7352,13.537635 z m -69.209417,10.84768 c 14.0253,-4.42978 18.11264,-22.34561 28.86697,-26.277 -4.77158,22.35857 3.01038,20.58465 10.7302,3.60432 8.618167,-19.55238 1.238067,-42.4403699 -3.976,-55.703549 -14.81206,3.6841691 -43.65405,-19.143684 -30.71958,7.4615991 4.7864,6.75455 20.33969,29.6710099 4.22826,13.7292799 -16.16223,-2.4971999 -35.94561,3.38552 -48.62412,3.70588 -1.07863,-15.7660299 17.10306,-42.051869 -9.1168,-26.252788 -32.861915,6.6960781 7.22955,38.588338 -6.186755,59.578718 -7.608359,15.91051 2.367515,16.0989 3.091925,1.94294 13.50039,5.15618 21.9175,22.77114 46.85929,16.97355 z m -10.49631,-3.59683 c -33.74049,-19.80989 27.26198,-12.95878 0,0 z m -30.21216,-25.05459 c -7.09187,-25.33049 56.877301,-31.1181237 48.110201,-10.960504 -15.51612,-1.95521 -38.400501,-0.315236 -37.808251,0.180304 -7.54991,-11.04027 -0.86355,15.94652 -10.30195,10.7802 z m -9.5617,-26.04863 c -18.920989,-14.3821299 18.98198,-33.072878 5.01378,-6.5384799 -1.2018,1.17269 -1.30189,10.3826899 -5.01378,6.5384799 z m 70.72127,-1.64298 c 0.81682,-11.71714989 -27.24478,-37.654441 -6.88623,-23.752849 17.25279,-3.361925 29.212617,10.7333091 9.87536,20.3261191 z M -12.048944,-4.9112909 c -10.169895,-17.8099671 25.851247,-2.23201 3.933958,-9.8553801 -6.165665,-5.760046 -9.792097,-17.255326 -4.901645,-3.083923 -10.033926,-6.472092 -14.397434,-31.00415 -14.145286,-6.707365 2.781062,7.480205 8.802373,22.2005873 5.387472,30.2082781 1.118275,4.6557899 14.032003,-7.678064 9.725501,-10.56161 z M -19.09075,-15.370125 c -7.282709,-12.549455 -6.504728,-25.840021 1.037008,-6.331694 2.898008,1.852605 5.403109,9.348177 -1.037008,6.331694 z m 164.87886,44.128024 c 13.85975,-24.9277899 -31.02425,-4.07358 0,0 z m -6.0915,-2.2081 c -11.32827,-16.7312899 20.70639,2.96858 0,0 z m -23.23278,2.61048 c -6.16508,-14.94761 -16.817597,-13.40053 0,0 z m 7.60678,-17.6236 c -20.68984,-25.41751 -3.08883,-62.257095 -18.55418,-90.347429 -15.549027,-28.06405 -52.690647,-32.79712 -81.498327,-26.62341 -16.30966,1.67298 -33.674896,19.568567 -39.088139,27.640751 -4.951412,2.829783 -26.33001,52.376454 2.568337,27.980979 12.85165903,-15.390384 -12.823005,12.028175 -1.454732,22.112002 8.079449,25.3253271 31.837289,-26.100019 9.087432,-20.044585 11.308874,-14.572445 -1.067223,-17.481957 -11.136868,-5.253008 -22.441652,16.189766 7.053474,-28.89843 7.053474,-28.89843 17.109336,-23.589219 38.035286,-25.592489 67.621546,-24.405499 19.84066,4.96324 45.624827,15.656926 48.068147,38.724646 8.59769,20.084474 1.2724,44.653623 2.96335,64.0741655 3.09951,7.4846201 9.78449,8.5366576 14.36996,15.0398175 z M -9.001314,-24.21713 c -5.667613,-11.298775 7.350813,-2.936492 0,0 z m 4.230925,-2.480469 c -0.731387,-9.609762 -6.071446,-16.130818 -8.188642,-2.650215 -8.303128,-9.281729 9.629907,-34.175451 4.770834,-12.85676 22.1339,-6.267302 6.803337,6.927151 3.417808,15.506975 z m -14.338617,-19.127171 0.234236,0.204465 z M 66.056503,8.4863791 c -6.91552,-11.88734 -17.2957,-2.97723 0,0 z m -17.57405,-1.2364 c 8.53208,-11.78732 -24.15309,-0.83434 0,0 z m -3.10705,-11.99843 c 9.03367,-13.3312801 -4.19476,-36.5854751 -11.96562,-11.6906121 -0.4367,6.131695 4.98104,14.3260521 11.96562,11.6906121 z m -5.47537,-2.82853 c -18.26551,-25.0025491 23.58348,1.83135 0,0 z m -32.6758,-5.6984911 c 19.24365,-4.534093 -17.353598,0.59921 0,0 z m 20.97008,-0.844417 c 7.93319,-10.127795 4.47937,-24.934514 -2.40408,-6.768122 -11.71501,8.307661 13.77389,-7.555843 0.92046,7.648893 0.49454,-0.293591 0.989081,-0.587178 1.48362,-0.880771 z m 61.62053,-0.153459 c -11.61243,-4.638754 -35.60926,-12.736113 -25.92313,-11.869065 2.88441,9.458507 16.56765,18.1658791 25.92313,11.869065 z m -73.3139,-1.919923 c 3.79693,-3.462893 -5.51103,2.232781 0,0 z m 87.110597,-5.684706 c 5.12456,-11.337258 2.59488,-28.382515 1.436,-5.928608 -0.76377,3.449293 -1.64613,-28.051197 -4.60769,-15.896617 17.63688,-9.388533 -24.294277,-25.821362 -29.898237,-17.3302 10.83681,-2.135063 15.346609,2.615862 -4.13959,4.871299 30.230979,0.65612 22.468168,13.129855 27.10889,14.282605 15.338347,-6.930895 7.092607,26.999415 10.100627,20.001521 z m -4.820017,-22.153926 c -14.85553,-20.664544 11.442437,-7.619704 0,0 z M 6.3021863,-31.084479 c 27.3841337,-5.237952 -9.1747033,-22.719858 0,0 z m 1.0583334,-2.116667 c -6.020615,-17.859422 19.3645403,1.28261 0,0 z m 71.7239133,-3.004943 c -0.3564,-18.02778 -22.019656,6.459782 0,0 z m -3.71996,0.296889 c -12.335629,-4.734918 10.163026,-7.478069 0,0 z m -20.3227,-1.867853 c -8.41815,-17.510633 28.33851,-22.173451 1.00105,-15.898712 -13.03385,15.987152 7.157,-8.215645 -6.43687,-2.082196 7.59124,10.654186 -9.36648,12.115913 -8.25886,11.779707 13.82276,4.896851 10.25147,-23.459492 11.61376,-0.436469 0.7027,2.10036 -0.5347,5.433573 2.08092,6.63767 z m -1.5267,-3.114349 c -1.72276,-5.056058 2.74026,-0.450842 0,0 z m -0.88196,-4.078976 c 1.19612,-1.393965 1.19612,1.393966 0,0 z m -31.20814,3.141924 c 6.687,-16.243687 20.19131,5.92709 12.06085,-9.632403 -10.4816,-6.741887 -29.239873,-2.563511 -12.06085,9.632403 z m -2.92587,-2.893881 c -12.746139,-17.657466 14.21826,1.752553 0,0 z m 7.75134,-15.440403 c -11.07567,-16.146256 22.44614,-9.774912 32.92039,-9.488432 9.10656,-2.01092 -4.6378,14.74955 5.08315,4.145365 10.34505,-3.925554 23.63956,-4.764402 7.39227,-8.198482 -7.65961,-0.394491 -26.22637,-7.941496 -5.89,-11.128942 14.00966,-10.993523 -21.34356,-6.28037 -19.9635,-14.46475 -13.24856,0.401 -16.89713,6.7491 -32.31679,9.026239 -12.274891,17.499056 1.86815,8.887719 11.67366,10.256145 -8.23444,6.218378 -25.72509597,11.077557 -5.80951,17.951951 l 4.97977,1.651447 1.93056,0.249512 z"
         id="path3338"
         inkscape:connector-curvature="0"
         sodipodi:nodetypes="cccccccccccccccccccccccccccccccccccccccccccccccccccccccccccccccccccccccccccccccccccccccccccccccccccccccccccccccccccccccccccccccccccccccccccccccccccccccccccccccccccccccccccccccccccccccccccccccccccccccccccccccccccccccccccccccccccccccccccccccccccccccccccccccccccccccccccccccccccccccccccccccccccccccccccccccccc"
         inkscape:export-xdpi="90"
         inkscape:export-ydpi="90" />
    </g>
    <text
       xml:space="preserve"
       style="font-style:normal;font-variant:normal;font-weight:normal;font-stretch:normal;font-size:12.69999981px;line-height:125%;font-family:Manjari;-inkscape-font-specification:'Manjari, Normal';font-variant-ligatures:normal;font-variant-caps:normal;font-variant-numeric:normal;font-feature-settings:normal;text-align:start;letter-spacing:0px;word-spacing:0px;writing-mode:lr-tb;text-anchor:start;fill:#384690;fill-opacity:1;stroke:none;stroke-width:0.26458332px;stroke-linecap:butt;stroke-linejoin:miter;stroke-opacity:1"
       x="65.466141"
       y="272.81369"
       id="text825"><tspan
         sodipodi:role="line"
         id="tspan823"
         x="65.466141"
         y="272.81369"
         style="font-style:normal;font-variant:normal;font-weight:normal;font-stretch:normal;font-size:12.69999981px;font-family:Manjari;-inkscape-font-specification:'Manjari, Normal';font-variant-ligatures:normal;font-variant-caps:normal;font-variant-numeric:normal;font-feature-settings:normal;text-align:start;writing-mode:lr-tb;text-anchor:start;fill:#384690;fill-opacity:1;stroke-width:0.26458332px">lernia</tspan></text>
  </g>
</svg>
